<svg width="120" height="120" viewBox="0 0 120 120" fill="none" xmlns="http://www.w3.org/2000/svg">
<path d="M111.8 41.35L110.35 27.5C108.25 12.4 101.4 6.25 86.7502 6.25H74.9502H67.5502H52.3502H44.9502H32.9502C18.2502 6.25 11.4502 12.4 9.3002 27.65L7.9502 41.4C7.4502 46.75 8.9002 51.95 12.0502 56C15.8502 60.95 21.7002 63.75 28.2002 63.75C34.5002 63.75 40.5502 60.6 44.3502 55.55C47.7502 60.6 53.5502 63.75 60.0002 63.75C66.4502 63.75 72.1002 60.75 75.5502 55.75C79.4002 60.7 85.3502 63.75 91.5502 63.75C98.2002 63.75 104.2 60.8 107.95 55.6C110.95 51.6 112.3 46.55 111.8 41.35Z" fill="#FEFEFE"/>
<path d="M56.7496 83.3C50.3996 83.95 45.5996 89.35 45.5996 95.75V109.45C45.5996 110.8 46.6996 111.9 48.0496 111.9H71.8996C73.2496 111.9 74.3496 110.8 74.3496 109.45V97.5C74.3996 87.05 68.2496 82.1 56.7496 83.3Z" fill="#FEFEFE"/>
<path d="M106.85 72V86.9C106.85 100.7 95.6504 111.9 81.8504 111.9C80.5004 111.9 79.4004 110.8 79.4004 109.45V97.5C79.4004 91.1 77.4504 86.1 73.6504 82.7C70.3004 79.65 65.7504 78.15 60.1004 78.15C58.8504 78.15 57.6004 78.2 56.2504 78.35C47.3504 79.25 40.6004 86.75 40.6004 95.75V109.45C40.6004 110.8 39.5004 111.9 38.1504 111.9C24.3504 111.9 13.1504 100.7 13.1504 86.9V72.1C13.1504 68.6 16.6004 66.25 19.8504 67.4C21.2004 67.85 22.5504 68.2 23.9504 68.4C24.5504 68.5 25.2004 68.6 25.8004 68.6C26.6004 68.7 27.4004 68.75 28.2004 68.75C34.0004 68.75 39.7004 66.6 44.2004 62.9C48.5004 66.6 54.1004 68.75 60.0004 68.75C65.9504 68.75 71.4504 66.7 75.7504 63C80.2504 66.65 85.8504 68.75 91.5504 68.75C92.4504 68.75 93.3504 68.7 94.2004 68.6C94.8004 68.55 95.3504 68.5 95.9004 68.4C97.4504 68.2 98.8504 67.75 100.25 67.3C103.5 66.2 106.85 68.6 106.85 72Z" fill="#FEFEFE"/>
</svg>
